<?xml version="1.0" encoding="UTF-8"?>
<svg id="Layer_2" data-name="Layer 2" xmlns="http://www.w3.org/2000/svg" viewBox="0 0 717.32 183.04">
  <defs>
    <style>
      .cls-1 {
        stroke-width: 2.83px;
      }

      .cls-1, .cls-2, .cls-3, .cls-4, .cls-5, .cls-6, .cls-7, .cls-8, .cls-9, .cls-10, .cls-11, .cls-12, .cls-13, .cls-14, .cls-15, .cls-16, .cls-17, .cls-18, .cls-19, .cls-20, .cls-21 {
        fill: #f9f20b;
        fill-rule: evenodd;
        stroke: #f9f20b;
      }

      .cls-1, .cls-2, .cls-3, .cls-4, .cls-5, .cls-6, .cls-8, .cls-9, .cls-10, .cls-11, .cls-12, .cls-13, .cls-14, .cls-15, .cls-16, .cls-17, .cls-18, .cls-19, .cls-20, .cls-21 {
        stroke-linecap: round;
      }

      .cls-2 {
        stroke-width: 1.96px;
      }

      .cls-3 {
        stroke-width: 2.77px;
      }

      .cls-4 {
        stroke-width: 2.81px;
      }

      .cls-5 {
        stroke-width: 2.4px;
      }

      .cls-22 {
        letter-spacing: 0em;
      }

      .cls-23 {
        letter-spacing: -.02em;
      }

      .cls-24 {
        letter-spacing: -.02em;
      }

      .cls-6 {
        stroke-width: 2.26px;
      }

      .cls-7 {
        stroke-miterlimit: 10;
      }

      .cls-8 {
        stroke-width: 1.09px;
      }

      .cls-9 {
        stroke-width: 1.1px;
      }

      .cls-25 {
        font-family: Inter-SemiBold, Inter;
        font-size: 75.12px;
        font-weight: 600;
      }

      .cls-26 {
        letter-spacing: 0em;
      }

      .cls-10 {
        stroke-width: 1.29px;
      }

      .cls-11 {
        stroke-width: 2.6px;
      }

      .cls-12 {
        stroke-width: 1.22px;
      }

      .cls-27 {
        letter-spacing: 0em;
      }

      .cls-13 {
        stroke-width: 1.19px;
      }

      .cls-28 {
        letter-spacing: -.04em;
      }

      .cls-14 {
        stroke-width: 2.91px;
      }

      .cls-15 {
        stroke-width: 2.91px;
      }

      .cls-16 {
        stroke-width: 2.93px;
      }

      .cls-17 {
        stroke-width: 1.56px;
      }

      .cls-18 {
        stroke-width: 2.01px;
      }

      .cls-19 {
        stroke-width: 2.04px;
      }

      .cls-20 {
        stroke-width: 2px;
      }

      .cls-21 {
        stroke-width: 2.67px;
      }
    </style>
  </defs>
  <g id="Layer_1-2" data-name="Layer 1">
    <g>
      <g>
        <path class="cls-7" d="M684.19,139.22c-2.26,2.3-11.1-.25-15.98,.13,.08,1.26,3.06,1.08,5.09,1.37l-1.13,1.54,2.55,.69c-2.69,1.3-9.04,1.77-10.7,.44,1.7,1.64,1.46,2.7-2.29,3.08,8.85,.87,17.51,3.53,38.27,4.4-8.25,4.13-15.54,3.98-17.36,8.61-2.33-.14-4.68-.28-7.02-.42l1.14-1.54-2.55-.69c2.75-3.39-11.44-3.29-12.1-1.78,2.06-.05,3.09,.42,3.34,1.26l-2.72,.38,.61,1.64c-9.56,.88-19.19,1.71-31.94,.25,10.08,4.09,36.88-.1,41.43,6.73-9.66,5.43-14.09-.84-25.27,2.79-.74,2.64,2.15,3.48,4.58,4.55-34.64,1.42-69.16,.01-104.45-.81-51.85-1.21-96.46,1.74-152.52,.62-49.88-.99-94.47,5.82-138.12,10.04-.31-1.47-4.26-1.14-6.84-1.48-.23-1.74,1.95-1.72,2.27-3.07-6.39,2.12-8.44,.03-9.3,2.66-4.48-.22-2-.91-1.4-2.22-31.55,2.05-81.39,4.55-102.33-2.83-2.02,.08-1.15,1.01-.18,1.06-.49,1.23-3.35,.71-5.45,.75l1.14-1.54-2.72,.37c.06-.35,.11-.71,.17-1.06-6.11-.93-7.35-3.58-13.87-1.89l1.13-1.54-2.71,.38c-2.56-1.9-7.5,.51-14.05-.83-.13-2.53-5.77-2.33-4.4-5.61l2.84-1.08-.56-2c2.01,.29,3.16-.05,3.69-.85-1.32-.64-2.67-1.28-5.1-1.38l1.2-1.89-2.44-1.4c.96-1.13,12.92-1.91,4.03-2.97l1.14-1.54-2.72,.37c-2-3.23-18.16,.57-15.1-5.17-6.12-.87-17.2,.73-15.28-4.11l2.72-.38-.62-1.64c5.58,1.24,14.7-.94,9.48-3.72-1.39,1.36-4.08,1.75-7.38,1.71l-.62-1.64-2.71,.37c-.93-1.01-1.82-2.02,.34-2.12-1.01-3.66-3.18-.72-8.6-1.58-1.16-6.4,5.08-7.35,8.75-10.18-3.61-3.08-9.66-4.95-18.61-5.38,.53-1.89-1.78-2.36-1.07-4.35-7.92-1.6-6.37-.41-15.62-1.99,1.68-4.73-5.8-4.91-13.35-5.07-1.89-6.93,12.38-1.97,16.66-4.37-1-2.75-9.01-2.02-11.77-3.91,1.47-2.08,8.32-.21,9.3-2.66l2.55,.68,2.54,.69c9.91,1.34,10.32-1.21,.18-1.06l-1.79-1.71-3.31,.34c-1.33-2.05-9.12,1.11-14.21,.23-7.33-.05,6.81-5.63-6.15-5.72l-.62-1.64-1.14,1.54c-4.73-2.51-8.06-2.81-11.77-3.91-.14-4.85,10.29-1.92,13.15-4.57-4.25-2.75-11.16-1.27-13.69-2.95,1.85-.08,7.45-1.57-1.41-2.22,1.67-1.14,2.79-2.7,2.62-5.19,5.62,.57,7.74-1.44,14.22-.23-.21-1.74,1.96-1.72,2.28-3.08-1.52-1.52-4.4-2.36-4.58-4.55l1.06-1.01-.71-1.11c4.57,.58,2.06-4.03,7.55-2.77,.67-2.28-6.15-.85-8.6-1.58-.22-1.74,1.95-1.73,2.27-3.08-2.5-.06-5-.12-5.09-1.37l2.84-1.08-.56-1.99c7.26,1.38,10.09-.5,12.8-2.46-1.27-1.96-3.39-3.52-6.32-4.66l1.19-1.89-2.43-1.39c-.45-2.31,2.84-1.87,5.61-1.81,.4-3.75-2.5-.44-6.67-2.54,7.03-1.13,10.79-9.78,18.77-6.39-.63-.99-1.23-1.99-3.17-2.33,16.03-3.53,31.84-2.42,43.7-7.06l2.84-1.08-.56-2c36,1.38,69.72-8.56,106.34-10.85C248.58,1.09,304.11-.55,377.12,1.2c58.12,1.39,103.67,2.73,160.6,4.14,15.56,9.83,50.41,.53,58.14,13.07-9.57-1.21-3.98,1.34-9.31,2.67-8.71-1.26-12.53,1.07-21.24-.19,4.02,3.2,20.06,.44,24.22,3.57-3.82,3.42-4.53,2.9,4.75,3.49l-1.2,1.89,2.43,1.39c-5.8,2.06-15.7,1.11-23.34,1.83,9.75,2.8,29.77,2.92,40.37,2.39l-1.19,1.89,2.42,1.39c.73,1.58,2.32,2.75,4.75,3.49l-1.15,1.54,2.54,.68c-.47,.84-1.93,.96-2.09,2.02l-.17,1.06,1.75,.1c-.37,2.71-1.51,1.21-3.68,.85-1.04,4.68,5.04-.2,6.67,2.54l.62,1.64,1.12-1.54c1.39,1.92,5.48,2.48,6.33,4.66,1.24,3.29-4.22,1.64-7.36,1.7,3.05,4.66,11.69,2.16,13.52,4.01l-1.2,1.89,2.42,1.39c.18,.92-.84,.96-1.92,.96,.37,2.42,8.59,.94,12.11,1.79-.08,1.91-2.51,2.11-2.45,4.14,19.36,3.06,29.45-1.41,39.34,8.74-3.52-.21-7.02-.42-10.53-.62,.08,1.26,3.05,1.08,5.08,1.37-4.67,2.97-15.91,.76-28.43,.46,1.58,4.11,23.83,3.09,25.98,3.68,5.2,1.36-2.48,2.71-2.45,4.13,.58,.03,1.17,.07,1.76,.11l-1.14,1.54,.62,1.64c-6.95,1.23-16.1,.83-24.92,.67,8.94,4.06,33.67,1.69,50.72,4.07l-1.19,1.9,2.44,1.39c.34,1.84-1.71,1.92-3.87,1.91-.67,2.28,6.15,.85,8.6,1.58l-1.14,1.54,.62,1.64c-.06,.36-.12,.71-.18,1.06l-2.53-.68,.6,1.64c-.47,.84-1.93,.95-2.1,2.01-.16,2.35,7.37,.89,10.36,1.69,1.61,3.55-5.82,.47-4.2,4.03-19.17-.53-22.07,.33-42.48-.37,16.95,2.64,25.33,4.78,45.46,3.75,2.12,2.68,2.24,2.76,4.75,3.49,.4,4.65-12.35-.38-14.57,2.35,1.79,1.4,4.7,2.22,2.66,5.51-13.97-1.95-22.6,.01-33.71,.15,5.27,.95,6.38,3.98,11.6,4.96l-1.14,1.54,2.55,.68Zm-71.42-83.42c-1.35-.99-5.13,.47-5.45,.75-1.95,1.77,6.53,.06,5.45-.75Z"/>
        <path class="cls-7" d="M69.21,141.7l-.74,1.83c-.89,1.62-2.94-1.11-3.69,.85-4.67-1.65,1.64-5,4.38-5.09l.62,1.64,2.54,.68-3.11,.08Z"/>
        <path class="cls-7" d="M15.8,91.72l.97-.48c.59,2.45,2.95-1.12,5.08,1.37-3.7,.92-5.3-.05-14.21,.23,2.01-1.61,5.08-2.16,7.19-.65,.06-.35,.12-.71,.18-1.06l.79,.58Z"/>
        <g>
          <path class="cls-20" d="M696.84,143.18c-8.21-.18-16.52-1.61-24.67-.92"/>
          <path class="cls-12" d="M103.32,152.54c-1.27,.51-2.48,.69-3.69,.85"/>
          <path class="cls-5" d="M72.94,143.25c-1.24-.47-2.49-1-3.74-1.56"/>
          <path class="cls-6" d="M69.78,140.93c1.34-.96,2.67-1.86,4.03-2.97"/>
          <path class="cls-16" d="M39.68,97.4c.18-.7,.55-1.39,.93-2.08"/>
          <path class="cls-8" d="M15.8,91.72c.22-1.36,.36-2.17,.52-3.18"/>
          <path class="cls-17" d="M6.44,62.26c3.58,.54,7.04-.41,10.62,.09"/>
          <path class="cls-14" d="M11.87,50.8c1.16,.11,2.3,.33,3.45,.56"/>
          <path class="cls-3" d="M17.02,40.94c1.8-.25,3.6-.36,5.41-.57"/>
          <path class="cls-21" d="M81.08,17.79c-1.15-.2-2.35-.12-3.55-.03"/>
          <path class="cls-15" d="M593.09,29.83c4.1-.38,8.24,.24,12.35,.37"/>
          <path class="cls-1" d="M611.37,37.33c2.97-.17,5.89,.1,8.92-.36"/>
          <path class="cls-19" d="M621,43.44c-1.18,0-2.39,.15-3.6,.32"/>
          <path class="cls-9" d="M617.68,47.52c1.32-.37,2.79-.17,3.88,.05,.94,1.7,2.29,3.17,1.49,5.08"/>
          <path class="cls-14" d="M635.46,63.38c1.21-.13,2.39-.14,3.57-.15"/>
          <path class="cls-14" d="M675.23,91.06c5.85,.35,11.7,.69,17.55,1.04"/>
          <path class="cls-4" d="M700.47,99.33c2.38-.1,4.75-.12,7.16-.47"/>
          <path class="cls-6" d="M706.5,105.75c1.22-.22,2.42-.28,3.6-.32"/>
          <path class="cls-13" d="M704.42,107.77c1.62,.84,3.37,1.01,5.08,1.37"/>
          <path class="cls-2" d="M681.64,138.54c4.03-1.01,8.59,.79,12.47-.33"/>
          <path class="cls-18" d="M662.72,156.69c4.34,1.01,9.46,1.43,14.04,.83"/>
          <path class="cls-11" d="M100.59,158.45c-5.17-.16-11.61,1.01-13.2,4.36,3.1,2.69,9.71,.02,13.97,1.76"/>
          <path class="cls-10" d="M119.68,171.7c-2.3,1.74-3.04,2.61-2.95,3.57,5.47,1.01,12.77,2.1,18.23,.54"/>
        </g>
      </g>
      <text class="cls-25" transform="translate(40.75 111.09)"><tspan class="cls-28" x="0" y="0">F</tspan><tspan x="41" y="0">eatu</tspan><tspan class="cls-23" x="202.93" y="0">r</tspan><tspan x="231.02" y="0">ed C</tspan><tspan class="cls-24" x="397.4" y="0">r</tspan><tspan class="cls-22" x="425.49" y="0">ea</tspan><tspan class="cls-26" x="513.18" y="0">t</tspan><tspan class="cls-27" x="541.29" y="0">ors</tspan></text>
    </g>
  </g>
</svg>