<?xml version="1.0" encoding="utf-8"?>
<!-- Generator: Adobe Illustrator 27.0.0, SVG Export Plug-In . SVG Version: 6.00 Build 0)  -->
<svg version="1.1" id="Layer_1" xmlns="http://www.w3.org/2000/svg" xmlns:xlink="http://www.w3.org/1999/xlink" x="0px" y="0px"
	 viewBox="0 0 24 24" style="enable-background:new 0 0 24 24;" xml:space="preserve">
<style type="text/css">
	.st0{fill:#C6C4C4;}
</style>
<path class="st0" d="M10,13H6v-1h4V13z M12.3,8.7l3.3,3.3l-4.4,1L12.3,8.7z M24,3.7L16.7,11l-3.4-3.4l7.3-7.4L24,3.7z M18,12.6v1
	c0,4.1-6,2.5-6,2.5s1.5,6-2.6,6H2V2h14.1l2-2H0v24h10.2c3.2,0,9.8-7.2,9.8-9.6v-3.8C20,10.5,18,12.6,18,12.6z"/>
</svg>
