<svg version="1.1" id="Layer_1" xmlns="http://www.w3.org/2000/svg" xmlns:xlink="http://www.w3.org/1999/xlink" x="0px" y="0px"
	 viewBox="0 0 24 24" style="enable-background:new 0 0 24 24;" xml:space="preserve">
<style type="text/css">
	.st0{fill-rule:evenodd;clip-rule:evenodd;fill:#C6C4C4;}
</style>
<path class="st0" d="M11.5,23L3,18.5v-4l5.4,3.1l3.1-3.4V23z M12.5,23v-8.8l3.2,3.3l5.3-3v3.9L12.5,23z M2.2,12.9L0,11.6l3-3.3
	L0,5.5L8.7,1l3.2,2.4L15.3,1L24,5.6l-3,2.8l3,3.4L21.8,13v0l-5.9,3.3l-3.3-3.5l7.4-4L12,4.4L4.1,8.8l7.4,3.9v0l-3.3,3.6l-5.2-3
	l-0.2-0.1L2.2,12.9C2.2,12.9,2.2,12.9,2.2,12.9z"/>
</svg>
